<?xml version="1.0" encoding="UTF-8"?>
<svg width="818px" height="159px" viewBox="0 0 818 159" version="1.1" xmlns="http://www.w3.org/2000/svg" xmlns:xlink="http://www.w3.org/1999/xlink">
    <!-- Generator: Sketch 62 (91390) - https://sketch.com -->
    <title>Artboard</title>
    <desc>Created with Sketch.</desc>
    <g id="Artboard" stroke="none" stroke-width="1" fill="none" fill-rule="evenodd">
        <path d="M48.2490234,136.257812 L48.2490234,131.057617 L36.3105469,130.618164 L36.3105469,85.0615234 L81.7207031,85.0615234 L81.7207031,79.2753906 L36.3105469,79.2753906 L36.3105469,35.2568359 L90.4365234,35.2568359 L90.8027344,52.0292969 L96.515625,52.0292969 L96.515625,29.6171875 L18,29.6171875 L18,34.8173828 L29.9384766,35.2568359 L29.9384766,130.618164 L18,131.057617 L18,136.257812 L48.2490234,136.257812 Z M143.463867,137.795898 C150.397461,137.795898 156.464355,136.111328 161.664551,132.742188 C166.864746,129.373047 170.929688,124.685547 173.859375,118.679688 C176.789062,112.673828 178.253906,105.789062 178.253906,98.0253906 L178.253906,98.0253906 L178.253906,95.3154297 C178.253906,87.5029297 176.789062,80.6181641 173.859375,74.6611328 C170.929688,68.7041016 166.852539,64.0288086 161.62793,60.6352539 C156.40332,57.2416992 150.299805,55.5449219 143.317383,55.5449219 C136.383789,55.5449219 130.316895,57.2416992 125.116699,60.6352539 C119.916504,64.0288086 115.851562,68.7041016 112.921875,74.6611328 C109.992188,80.6181641 108.527344,87.5029297 108.527344,95.3154297 L108.527344,95.3154297 L108.527344,98.0253906 C108.527344,105.789062 109.992188,112.661621 112.921875,118.643066 C115.851562,124.624512 119.928711,129.312012 125.15332,132.705566 C130.37793,136.099121 136.481445,137.795898 143.463867,137.795898 Z M143.463867,132.15625 C137.555664,132.15625 132.465332,130.642578 128.192871,127.615234 C123.92041,124.587891 120.636719,120.498535 118.341797,115.347168 C116.046875,110.195801 114.899414,104.421875 114.899414,98.0253906 L114.899414,98.0253906 L114.899414,95.3154297 C114.899414,89.0166016 116.046875,83.2915039 118.341797,78.1401367 C120.636719,72.9887695 123.92041,68.875 128.192871,65.7988281 C132.465332,62.7226562 137.506836,61.1845703 143.317383,61.1845703 C149.176758,61.1845703 154.242676,62.7226562 158.515137,65.7988281 C162.787598,68.875 166.083496,72.9887695 168.402832,78.1401367 C170.722168,83.2915039 171.881836,89.0166016 171.881836,95.3154297 L171.881836,95.3154297 L171.881836,98.0253906 C171.881836,104.373047 170.734375,110.122559 168.439453,115.273926 C166.144531,120.425293 162.873047,124.526855 158.625,127.578613 C154.376953,130.630371 149.323242,132.15625 143.463867,132.15625 Z M221.90625,136.257812 L221.90625,131.057617 L209.967773,130.618164 L209.967773,83.3769531 C211.334961,76.8339844 214.008301,71.5849609 217.987793,67.6298828 C221.967285,63.6748047 227.130859,61.7216797 233.478516,61.7705078 L233.478516,61.7705078 L240.875977,62.2832031 L241.608398,56.4970703 C240.924805,56.3017578 239.850586,56.0942383 238.385742,55.8745117 C236.920898,55.6547852 235.578125,55.5449219 234.357422,55.5449219 C228.498047,55.5449219 223.517578,57.0219727 219.416016,59.9760742 C215.314453,62.9301758 212.165039,67.0439453 209.967773,72.3173828 L209.967773,72.3173828 L209.894531,69.9003906 L209.088867,57.0097656 L191.657227,57.0097656 L191.657227,62.2099609 L203.595703,62.6494141 L203.595703,130.618164 L191.657227,131.057617 L191.657227,136.257812 L221.90625,136.257812 Z M282.770508,136.257812 L282.770508,131.057617 L270.832031,130.618164 L270.832031,83.5966797 C272.101562,76.9560547 274.70166,71.5727539 278.632324,67.4467773 C282.562988,63.3208008 288.19043,61.2578125 295.514648,61.2578125 C302.008789,61.2578125 307.147949,63.4672852 310.932129,67.8862305 C314.716309,72.3051758 316.608398,79.8125 316.608398,90.4082031 L316.608398,90.4082031 L316.608398,130.618164 L304.669922,131.057617 L304.669922,136.257812 L334.992188,136.257812 L334.992188,131.057617 L323.053711,130.618164 L323.053711,86.2333984 C323.883789,78.9580078 326.312988,72.9765625 330.341309,68.2890625 C334.369629,63.6015625 340.192383,61.2578125 347.80957,61.2578125 C354.254883,61.2578125 359.369629,63.4550781 363.153809,67.8496094 C366.937988,72.2441406 368.830078,79.7392578 368.830078,90.3349609 L368.830078,90.3349609 L368.830078,130.544922 L356.891602,131.057617 L356.891602,136.18457 L387.213867,136.18457 L387.213867,131.057617 L375.275391,130.544922 L375.275391,90.4814453 C375.275391,78.5185547 372.992676,69.6928711 368.427246,64.0043945 C363.861816,58.315918 357.282227,55.4716797 348.688477,55.4716797 C341.901367,55.4716797 336.212891,57.2294922 331.623047,60.7451172 C327.033203,64.2607422 323.639648,69.1435547 321.442383,75.3935547 C319.733398,68.6552734 316.803711,63.6625977 312.65332,60.4155273 C308.50293,57.168457 303.180664,55.5449219 296.686523,55.5449219 C290.53418,55.5449219 285.272949,56.9853516 280.902832,59.8662109 C276.532715,62.7470703 273.126953,66.7753906 270.685547,71.9511719 L270.685547,71.9511719 L270.099609,57.0097656 L252.521484,57.0097656 L252.521484,62.2099609 L264.459961,62.6494141 L264.459961,130.618164 L252.521484,131.057617 L252.521484,136.257812 L282.770508,136.257812 Z M415.631836,33.4257812 L415.631836,22 L408.087891,22 L408.087891,33.4257812 L415.631836,33.4257812 Z M427.570312,136.257812 L427.570312,131.057617 L415.631836,130.618164 L415.631836,57.0097656 L397.321289,57.0097656 L397.321289,62.2099609 L409.259766,62.6494141 L409.259766,130.618164 L397.321289,131.057617 L397.321289,136.257812 L427.570312,136.257812 Z M473.639648,137.795898 C479.59668,137.795898 484.772461,136.599609 489.166992,134.207031 C493.561523,131.814453 497.052734,128.518555 499.640625,124.319336 L499.640625,124.319336 L500.006836,136.257812 L517.804688,136.257812 L517.804688,131.057617 L505.866211,130.618164 L505.866211,22 L487.555664,22 L487.555664,27.2001953 L499.494141,27.6396484 L499.494141,70.1933594 C496.857422,65.6035156 493.390625,62.0146484 489.09375,59.4267578 C484.796875,56.8388672 479.694336,55.5449219 473.786133,55.5449219 C467.487305,55.5449219 462.091797,57.2416992 457.599609,60.6352539 C453.107422,64.0288086 449.665039,68.8261719 447.272461,75.0273438 C444.879883,81.2285156 443.683594,88.5283203 443.683594,96.9267578 L443.683594,96.9267578 L443.683594,98.4648438 C443.683594,106.472656 444.879883,113.418457 447.272461,119.302246 C449.665039,125.186035 453.095215,129.739258 457.562988,132.961914 C462.030762,136.18457 467.389648,137.795898 473.639648,137.795898 Z M474.445312,132.083008 C466.4375,132.083008 460.39502,129.043457 456.317871,122.964355 C452.240723,116.885254 450.202148,108.71875 450.202148,98.4648438 L450.202148,98.4648438 L450.202148,96.9267578 C450.202148,89.8955078 451.117676,83.706543 452.94873,78.3598633 C454.779785,73.0131836 457.501953,68.8261719 461.115234,65.7988281 C464.728516,62.7714844 469.220703,61.2578125 474.591797,61.2578125 C481.378906,61.2578125 486.75,62.9667969 490.705078,66.3847656 C494.660156,69.8027344 497.589844,74.0751953 499.494141,79.2021484 L499.494141,79.2021484 L499.494141,116.189453 C497.492188,121.072266 494.391602,124.941895 490.192383,127.79834 C485.993164,130.654785 480.744141,132.083008 474.445312,132.083008 Z M555.670898,137.795898 C561.87207,137.795898 567.450684,136.379883 572.406738,133.547852 C577.362793,130.71582 581.305664,127.053711 584.235352,122.561523 C584.235352,124.905273 584.357422,126.980469 584.601562,128.787109 C584.845703,130.59375 585.260742,133.083984 585.84668,136.257812 L585.84668,136.257812 L601.740234,136.257812 L601.740234,131.057617 L591.486328,130.911133 C591.144531,129.15332 590.912598,127.395508 590.790527,125.637695 C590.668457,123.879883 590.607422,122.097656 590.607422,120.291016 L590.607422,120.291016 L590.607422,82.0585938 C590.607422,73.8066406 588.202637,67.324707 583.393066,62.612793 C578.583496,57.9008789 571.540039,55.5449219 562.262695,55.5449219 C556.891602,55.5449219 552.106445,56.4238281 547.907227,58.1816406 C543.708008,59.9394531 539.948242,62.3076172 536.62793,65.2861328 L536.62793,65.2861328 L536.62793,81.1064453 L542.267578,81.1064453 L542.560547,68.5820312 C544.953125,66.4824219 547.80957,64.7246094 551.129883,63.3085938 C554.450195,61.8925781 558.136719,61.1845703 562.189453,61.1845703 C569.660156,61.1845703 575.202148,63.1010742 578.81543,66.934082 C582.428711,70.7670898 584.235352,75.7597656 584.235352,81.9121094 L584.235352,81.9121094 L584.235352,91.5068359 L566.950195,91.5068359 C559.870117,91.5068359 553.717773,92.5322266 548.493164,94.5830078 C543.268555,96.6337891 539.240234,99.4902344 536.408203,103.152344 C533.576172,106.814453 532.160156,111.038086 532.160156,115.823242 C532.160156,122.512695 534.259766,127.847168 538.458984,131.82666 C542.658203,135.806152 548.395508,137.795898 555.670898,137.795898 Z M556.110352,132.009766 C550.885742,132.009766 546.649902,130.508301 543.402832,127.505371 C540.155762,124.502441 538.532227,120.706055 538.532227,116.116211 C538.532227,110.598633 541.095703,106.008789 546.222656,102.34668 C551.349609,98.6845703 558.258789,96.8535156 566.950195,96.8535156 L566.950195,96.8535156 L584.235352,96.8535156 L584.235352,114.651367 C581.696289,119.973633 577.814453,124.197266 572.589844,127.322266 C567.365234,130.447266 561.87207,132.009766 556.110352,132.009766 Z M650.519531,137.795898 C656.818359,137.795898 662.20166,136.18457 666.669434,132.961914 C671.137207,129.739258 674.567383,125.186035 676.959961,119.302246 C679.352539,113.418457 680.548828,106.472656 680.548828,98.4648438 L680.548828,98.4648438 L680.548828,96.9267578 C680.548828,88.5283203 679.340332,81.2285156 676.92334,75.0273438 C674.506348,68.8261719 671.051758,64.0288086 666.55957,60.6352539 C662.067383,57.2416992 656.671875,55.5449219 650.373047,55.5449219 C644.416016,55.5449219 639.276855,56.8510742 634.955566,59.4633789 C630.634277,62.0756836 627.179688,65.6767578 624.591797,70.2666016 L624.591797,70.2666016 L624.591797,22 L606.28125,22 L606.28125,27.2001953 L618.219727,27.6396484 L618.219727,136.257812 L623.639648,136.257812 L624.37207,124.172852 C626.911133,128.420898 630.402344,131.753418 634.845703,134.17041 C639.289062,136.587402 644.513672,137.795898 650.519531,137.795898 Z M649.787109,132.083008 C643.341797,132.083008 638.007324,130.59375 633.783691,127.615234 C629.560059,124.636719 626.496094,120.681641 624.591797,115.75 L624.591797,115.75 L624.591797,79.7148438 C626.398438,74.4902344 629.279297,70.1079102 633.234375,66.5678711 C637.189453,63.027832 642.658203,61.2578125 649.640625,61.2578125 C654.962891,61.2578125 659.442871,62.7714844 663.080566,65.7988281 C666.718262,68.8261719 669.452637,73.0131836 671.283691,78.3598633 C673.114746,83.706543 674.030273,89.8955078 674.030273,96.9267578 L674.030273,96.9267578 L674.030273,98.4648438 C674.030273,108.71875 671.979492,116.885254 667.87793,122.964355 C663.776367,129.043457 657.746094,132.083008 649.787109,132.083008 Z M722.882812,136.257812 L722.882812,131.057617 L710.944336,130.618164 L710.944336,22 L692.633789,22 L692.633789,27.2001953 L704.572266,27.6396484 L704.572266,130.618164 L692.633789,131.057617 L692.633789,136.257812 L722.882812,136.257812 Z M770.636719,137.795898 C776.496094,137.795898 781.562012,136.831543 785.834473,134.902832 C790.106934,132.974121 793.830078,130.496094 797.003906,127.46875 L797.003906,127.46875 L794.074219,122.927734 C791.095703,125.759766 787.689941,128.005859 783.856934,129.666016 C780.023926,131.326172 775.617188,132.15625 770.636719,132.15625 C765.216797,132.15625 760.456055,130.752441 756.354492,127.944824 C752.25293,125.137207 749.054688,121.291992 746.759766,116.40918 C744.464844,111.526367 743.292969,105.984375 743.244141,99.7832031 L743.244141,99.7832031 L743.317383,95.3886719 L799.713867,95.3886719 L799.713867,88.6503906 C799.713867,81.9121094 798.493164,76.0771484 796.051758,71.1455078 C793.610352,66.2138672 790.106934,62.3808594 785.541504,59.6464844 C780.976074,56.9121094 775.592773,55.5449219 769.391602,55.5449219 C763.239258,55.5449219 757.697266,57.2539062 752.765625,60.671875 C747.833984,64.0898438 743.939941,68.7651367 741.083496,74.6977539 C738.227051,80.6303711 736.798828,87.3808594 736.798828,94.9492188 L736.798828,94.9492188 L736.798828,99.2705078 C736.798828,106.838867 738.251465,113.516113 741.156738,119.302246 C744.062012,125.088379 748.053711,129.617188 753.131836,132.888672 C758.209961,136.160156 764.044922,137.795898 770.636719,137.795898 Z M793.341797,89.7490234 L744.049805,89.7490234 L743.830078,89.3095703 C744.269531,83.9873047 745.648926,79.2021484 747.968262,74.9541016 C750.287598,70.7060547 753.290527,67.3491211 756.977051,64.8833008 C760.663574,62.4174805 764.801758,61.1845703 769.391602,61.1845703 C774.323242,61.1845703 778.583496,62.3320312 782.172363,64.6269531 C785.76123,66.921875 788.52002,70.046875 790.44873,74.0019531 C792.377441,77.9570312 793.341797,82.4248047 793.341797,87.4052734 L793.341797,87.4052734 L793.341797,89.7490234 Z" id="Formidable" fill="#3D3D3D" fill-rule="nonzero"></path>
    </g>
</svg>